<?xml version="1.0" standalone="no"?>
<!DOCTYPE svg PUBLIC "-//W3C//DTD SVG 20010904//EN"
 "http://www.w3.org/TR/2001/REC-SVG-20010904/DTD/svg10.dtd">
<svg version="1.0" xmlns="http://www.w3.org/2000/svg"
 width="152.000000pt" height="152.000000pt" viewBox="0 0 152.000000 152.000000"
 preserveAspectRatio="xMidYMid meet">

<g transform="translate(0.000000,152.000000) scale(0.100000,-0.100000)"
fill="#000000" stroke="none">
<path d="M0 760 l0 -760 760 0 760 0 0 760 0 760 -760 0 -760 0 0 -760z m1033
385 c68 -50 133 -144 158 -227 17 -55 21 -88 17 -161 -3 -81 -8 -102 -39 -168
-48 -99 -118 -170 -218 -218 -74 -35 -80 -36 -191 -36 -111 0 -117 1 -191 36
-100 48 -170 119 -218 218 -31 66 -36 87 -39 168 -4 73 0 106 17 161 25 83 90
177 158 227 l48 35 225 0 225 0 48 -35z"/>
<path d="M727 1012 c-13 -14 -17 -39 -17 -105 l0 -87 40 0 c42 0 80 26 80 55
0 21 -23 19 -43 -6 -28 -32 -42 -18 -45 48 -2 46 1 63 14 74 14 11 18 11 29
-4 15 -20 45 -23 45 -4 0 41 -74 61 -103 29z"/>
<path d="M652 715 c1 -33 3 -48 5 -32 5 31 33 37 33 7 0 -11 5 -20 10 -20 6 0
10 20 10 45 0 25 -5 45 -10 45 -6 0 -10 -8 -8 -17 5 -28 -25 -21 -33 7 -5 16
-7 4 -7 -35z"/>
<path d="M892 715 c0 -44 2 -52 7 -30 l7 30 13 -23 c17 -31 25 -22 10 11 -9
21 -9 30 1 42 8 10 9 15 1 15 -6 0 -11 -4 -11 -10 0 -17 -18 -11 -23 8 -3 9
-5 -10 -5 -43z"/>
<path d="M580 710 c0 -53 15 -65 41 -34 12 15 11 16 -9 10 -20 -7 -22 -4 -22
29 0 32 3 37 20 32 11 -3 18 -1 14 4 -3 5 -14 9 -25 9 -16 0 -19 -7 -19 -50z"/>
<path d="M740 710 c0 -43 3 -50 19 -50 11 0 23 5 26 10 3 6 -3 10 -14 10 -25
0 -28 27 -3 33 16 4 16 5 0 6 -26 2 -22 29 5 34 19 4 18 4 -5 6 -27 1 -28 -1
-28 -49z"/>
<path d="M817 753 c-11 -11 -8 -68 4 -80 6 -6 18 -9 25 -6 22 8 16 22 -6 16
-17 -5 -20 0 -20 32 0 32 3 37 20 32 11 -3 20 -1 20 4 0 10 -33 12 -43 2z"/>
<path d="M580 581 c0 -54 15 -67 41 -34 13 15 12 15 -8 4 -22 -11 -23 -10 -23
29 0 42 7 48 29 28 11 -11 13 -10 9 2 -3 8 -14 16 -26 18 -20 3 -22 -1 -22
-47z"/>
<path d="M652 580 c0 -36 2 -47 7 -31 9 34 31 39 31 7 0 -14 5 -26 10 -26 6 0
10 23 10 50 0 28 -4 50 -10 50 -5 0 -10 -9 -10 -20 0 -27 -28 -25 -33 3 -2 12
-4 -3 -5 -33z"/>
<path d="M740 580 c0 -47 2 -50 25 -50 14 0 25 5 25 10 0 6 -9 10 -20 10 -25
0 -27 27 -2 33 16 4 16 5 0 6 -26 2 -22 29 5 34 19 4 18 4 -5 6 -27 1 -28 -1
-28 -49z"/>
<path d="M817 623 c-24 -24 6 -105 33 -88 18 11 11 23 -11 18 -18 -5 -20 -2
-17 28 2 25 8 34 20 33 10 -1 15 2 12 7 -6 11 -28 12 -37 2z"/>
<path d="M892 580 c0 -43 2 -49 7 -25 l8 30 13 -27 c7 -16 17 -28 22 -28 5 0
2 14 -7 30 -12 24 -13 35 -4 53 12 22 12 22 -9 4 -20 -18 -20 -18 -25 0 -3 10
-5 -7 -5 -37z"/>
</g>
</svg>
