<svg xmlns="http://www.w3.org/2000/svg" xmlns:xlink="http://www.w3.org/1999/xlink" width="408" height="409" viewBox="0 0 408 409">
  <defs>
    <clipPath id="clip-logo_1">
      <rect width="408" height="409"/>
    </clipPath>
  </defs>
  <g id="logo_1" data-name="logo – 1" clip-path="url(#clip-logo_1)">
    <rect width="408" height="409" fill="#303030"/>
    <g id="logo_Check_check" transform="translate(3.694 112)">
      <path id="Trazado_3" data-name="Trazado 3" d="M84.281-90.419C74.125-79.481,71-59.95,71-8.387V59.583h31.25c32.813,0,62.5-20.313,62.5-42.969,0-16.406-17.969-14.844-33.594,4.688C109.282,46.3,98.344,35.364,96-16.2c-1.563-35.938.781-49.219,10.938-57.813,10.938-8.594,14.063-8.594,22.656,3.125,11.719,15.625,35.157,17.969,35.157,3.125C164.751-99.794,106.938-115.419,84.281-90.419Z" transform="translate(88.563)" fill="#fff"/>
      <path id="Trazado_4" data-name="Trazado 4" d="M65.2-40.843c.781,25.781,2.344,37.5,3.906,25,3.906-24.219,25.781-28.906,25.781-5.469,0,8.594,3.906,15.625,7.813,15.625,4.688,0,7.813-15.625,7.813-35.157S106.607-76,102.7-76c-4.688,0-7.813,6.25-6.25,13.281,3.906,21.875-19.531,16.406-25.782-5.469C66.763-80.688,65.2-71.312,65.2-40.843Z" transform="translate(49.051 182.458)" fill="#fff"/>
      <path id="Trazado_5" data-name="Trazado 5" d="M89.2-40.686C89.2-6.31,90.763-.06,94.669-17.248l5.469-23.438,10.156,17.969c13.281,24.219,19.531,17.188,7.813-8.594-7.031-16.406-7.031-23.438.781-32.813,6.25-7.813,7.031-11.719.781-11.719-4.688,0-8.594,3.125-8.594,7.813,0,13.281-14.063,8.594-17.969-6.25C90.763-81.311,89.2-66.467,89.2-40.686Z" transform="translate(212.552 182.301)" fill="#fff"/>
      <path id="Trazado_6" data-name="Trazado 6" d="M58-36.937C58,4.469,69.719,13.845,90.032-10.374c9.375-11.719,8.594-12.5-7.031-7.813-15.625,5.469-17.188,3.125-17.188-22.656,0-25,2.344-28.907,15.625-25,8.594,2.344,14.063.781,10.938-3.125C90.032-72.875,81.438-76,72.844-76,60.344-76,58-70.531,58-36.937Z" transform="translate(0 182.458)" fill="#fff"/>
      <path id="Trazado_7" data-name="Trazado 7" d="M74-37.5C74-3.91,76.344,1.558,88.844,1.558c8.594,0,17.969-3.906,20.313-7.813,2.344-4.688-2.344-7.813-10.938-7.813-19.531,0-21.875-21.094-2.344-25.782,12.5-3.125,12.5-3.906,0-4.688C75.563-46.1,78.688-67.192,99.782-71.1c14.844-3.125,14.063-3.125-3.906-4.688C74.781-76.567,74-75,74-37.5Z" transform="translate(109.001 183.026)" fill="#fff"/>
      <path id="Trazado_8" data-name="Trazado 8" d="M86.348-70.821C77.754-62.227,80.1-17.7,89.473-8.32,94.161-3.633,103.536-1.289,109-3.633c17.188-6.25,12.5-17.188-4.688-12.5-13.281,3.906-15.625,0-15.625-25s2.344-28.907,15.625-25c8.594,2.344,15.625.781,15.625-3.125C119.942-77.071,94.161-78.634,86.348-70.821Z" transform="translate(156.81 182.748)" fill="#fff"/>
      <path id="Trazado_9" data-name="Trazado 9" d="M58-25.563C58,16.625,69.719,26.781,90.032,1c10.156-11.719,9.375-11.719-6.25-3.125C66.594,6.469,65.813,5.687,65.813-24.782c0-32.813,5.469-37.5,22.656-21.875,8.594,8.594,10.156,7.813,7.031-1.563-2.344-6.25-10.938-12.5-20.313-14.063C59.563-64.626,58-61.5,58-25.563Z" transform="translate(0 271.866)" fill="#fff"/>
      <path id="Trazado_10" data-name="Trazado 10" d="M65.2-23.937c0,28.125,1.563,36.719,5.469,24.219C77.7-26.281,94.888-30.187,94.888-5.187c0,10.938,3.906,20.313,7.813,20.313,4.688,0,7.813-17.969,7.813-39.063C110.513-45.812,107.388-63,102.7-63c-3.906,0-7.813,7.031-7.813,15.625,0,21.094-21.875,19.531-25.781-2.344C67.544-59.094,65.981-47.375,65.2-23.937Z" transform="translate(49.051 271.022)" fill="#fff"/>
      <path id="Trazado_11" data-name="Trazado 11" d="M74-24.5c0,36.719,1.563,39.063,19.531,39.063,10.938,0,19.531-3.906,19.531-7.813,0-4.688-7.031-7.813-15.625-7.813-19.531,0-21.094-21.094-1.562-25.781,12.5-3.125,12.5-3.906,0-4.688C75.563-33.1,78.688-54.192,99.782-58.1c14.844-3.125,14.063-3.125-3.906-4.688C74.781-63.567,74-62,74-24.5Z" transform="translate(109.001 271.589)" fill="#fff"/>
      <path id="Trazado_12" data-name="Trazado 12" d="M87.676-57.589c-18.75,18.75,4.688,82.032,25.781,68.751C127.52,2.568,122.051-6.807,104.863-2.9,90.8,1.005,89.238-1.338,91.582-24.776c1.563-19.531,6.25-26.563,15.625-25.782,7.813.781,11.719-1.563,9.375-5.469C111.895-64.62,94.707-65.4,87.676-57.589Z" transform="translate(155.482 271.08)" fill="#fff"/>
      <path id="Trazado_13" data-name="Trazado 13" d="M89.2-23.912c0,33.594,1.563,38.282,5.469,19.531l6.25-23.438L111.075-6.724c5.469,12.5,13.281,21.875,17.188,21.875s1.562-10.938-5.469-23.438c-9.375-18.75-10.156-27.344-3.125-41.407,9.375-17.188,9.375-17.188-7.031-3.125-15.625,14.063-15.625,14.063-19.531,0C90.763-60.631,89.2-47.349,89.2-23.912Z" transform="translate(212.552 270.996)" fill="#fff"/>
    </g>
  </g>
</svg>
